<?xml version="1.0"?>
<svg version="1.1" xmlns="http://www.w3.org/2000/svg" width="205px" height="50px" style=""><path fill="#f7f5eb" d="M51.2109375,33.9453125q-0.01953125-0.078125-0.01953125-0.15625q0-2.03125,0.25390625-4.21875q0.2734375-2.28515625,0.849609375-4.5703125t1.5625-4.140625t2.40234375-3.076171875t3.427734375-1.455078125q0.3515625-0.0390625,0.72265625-0.0390625q0.99609375,0,2.05078125,0.3125q1.46484375,0.41015625,2.3828125,1.4453125q1.03515625,0.078125,1.66015625,0.8203125t0.9375,1.796875t0.458984375,2.177734375t0.224609375,1.962890625q0.1953125,1.8359375,0.25390625,3.984375q0.01953125,0.41015625,0.01953125,0.83984375q0,1.71875-0.1953125,3.45703125q-0.234375,2.1875-0.83984375,4.248046875t-1.6796875,3.720703125t-2.734375,2.783203125t-4.0234375,1.357421875q2.03125,0.91796875,3.974609375,1.943359375t4.013671875,1.748046875q0.1953125,0.078125,0.537109375,0.1171875t0.68359375,0.13671875t0.60546875,0.234375t0.302734375,0.4296875q0,0.234375-0.244140625,0.41015625t-0.5859375,0.322265625t-0.673828125,0.224609375t-0.5078125,0.1171875l-0.3125,0l-0.498046875,0t-0.458984375-0.0390625t-0.234375-0.1171875q-0.99609375-0.1171875-2.32421875-0.703125t-2.705078125-1.337890625t-2.6953125-1.494140625t-2.353515625-1.19140625l-0.21484375-0.546875q0.078125-0.15625,0.283203125-0.283203125t0.400390625-0.205078125q-1.23046875-0.390625-2.05078125-1.171875t-1.328125-1.787109375t-0.78125-2.1484375t-0.390625-2.294921875q-0.15625-1.5234375-0.15625-3.61328125z M55,33.984375q0.0390625,1.62109375,0.15625,2.7734375q0.0390625,0.60546875,0.224609375,1.50390625t0.478515625,1.81640625t0.712890625,1.69921875t0.947265625,1.15234375q0.3515625,0.1953125,0.693359375,0.29296875t0.673828125,0.29296875q0.48828125-0.0390625,0.8203125-0.21484375t0.78125-0.25390625l0.0390625-0.0390625q1.40625-0.64453125,2.40234375-1.865234375t1.650390625-2.763671875t1.015625-3.3203125t0.498046875-3.5546875q0.09765625-1.38671875,0.09765625-2.6953125l0-0.7421875q-0.0390625-1.66015625-0.15625-2.98828125q-0.15625-1.23046875-0.3125-2.451171875t-0.60546875-2.392578125q-0.80078125,0.1953125-1.181640625,0.1171875t-0.693359375-0.83984375q-0.1171875,0-0.263671875-0.05859375t-0.185546875-0.21484375q0-0.1171875,0.078125-0.1953125q-0.80078125-0.80078125-1.6796875-0.91796875q-0.37109375-0.05859375-0.8203125-0.05859375q-0.56640625,0-1.25,0.09765625l-0.0390625,0q-0.99609375,0.72265625-1.69921875,2.060546875t-1.181640625,3.037109375t-0.76171875,3.57421875t-0.380859375,3.7109375q-0.078125,1.2890625-0.078125,2.5q0,0.46875,0.01953125,0.9375z M59.51171875,45.1171875q0.09765625-0.0390625,0.29296875-0.0390625q-0.078125,0-0.13671875,0.01953125t-0.15625,0.01953125z M72.2787109375,35.99609375q0-0.390625,0.087890625-1.03515625t0.205078125-1.279296875t0.2734375-1.181640625t0.37109375-0.703125q0.15625-0.15625,0.537109375-0.3125t0.80078125-0.224609375t0.78125,0.05859375t0.439453125,0.517578125q-0.2734375,0.3515625-0.498046875,1.201171875t-0.341796875,1.884765625q-0.09765625,0.87890625-0.09765625,1.81640625l0,0.33203125q0.01953125,1.09375,0.1953125,2.01171875t0.537109375,1.513671875t1.005859375,0.595703125q1.3671875,0,2.5-1.259765625t2.01171875-3.076171875t1.54296875-3.857421875t1.1328125-3.564453125q0.1171875-0.44921875,0.556640625-0.60546875t0.947265625-0.107421875t0.908203125,0.244140625t0.478515625,0.46875q-0.390625,3.28125-0.615234375,6.5625t-0.224609375,6.6015625q0,0.64453125,0.05859375,1.181640625t-0.05859375,0.91796875t-0.517578125,0.60546875t-1.279296875,0.224609375q-0.1953125,0-0.498046875-0.0390625t-0.625-0.126953125t-0.546875-0.263671875t-0.224609375-0.41015625q0-1.4453125,0.107421875-2.96875t0.302734375-2.94921875q-0.52734375,0.76171875-1.162109375,1.513671875t-1.396484375,1.357421875t-1.640625,0.966796875t-1.89453125,0.361328125q-1.4453125,0-2.275390625-0.68359375t-1.25-1.708984375t-0.52734375-2.236328125t-0.107421875-2.34375z M90.651171875,37.24609375q0-1.796875,0.419921875-3.525390625t0.712890625-3.447265625q0.078125-0.44921875,0.615234375-0.556640625t0.908203125-0.107421875q0.64453125,0,1.03515625,0.1953125q0.15625,0.078125,0.29296875,0.17578125t0.13671875,0.25390625q0,1.6796875-0.400390625,3.28125t-0.400390625,3.3984375q0,0.60546875,0.087890625,1.142578125t0.166015625,1.064453125l0.1171875,0.56640625q0,0.15625,0.01953125,0.2734375t0.05859375,0.2734375q0,0.3515625-0.498046875,0.478515625t-0.869140625,0.126953125q-0.56640625,0-1.044921875-0.224609375t-0.751953125-0.771484375l-0.2734375-0.56640625q-0.234375-0.44921875-0.234375-1.005859375t-0.09765625-1.025390625z M91.901171875,25.48828125l0-0.37109375q0-0.91796875,0.458984375-1.640625t1.376953125-0.72265625q0.1171875,0,0.224609375,0.01953125t0.224609375,0.01953125q0.234375,0.0390625,0.615234375,0.185546875t0.380859375,0.458984375l0,0.0390625q-0.078125,0.15625-0.09765625,0.322265625t-0.09765625,0.283203125l0.0390625-0.0390625q-0.234375,0.60546875-0.380859375,0.9765625t-0.322265625,0.595703125t-0.439453125,0.322265625t-0.751953125,0.09765625q-0.078125,0-0.2734375-0.01953125t-0.419921875-0.078125t-0.380859375-0.15625t-0.15625-0.29296875z M99.1798828125,32.03125q0-1.3671875,0.126953125-3.5546875t0.302734375-4.51171875t0.439453125-4.404296875t0.576171875-3.193359375q0.1171875-0.48828125,0.556640625-0.5859375t0.888671875-0.09765625q0.60546875,0,1.044921875,0.21484375t0.439453125,0.9375q0,3.5546875-0.439453125,7.119140625t-0.478515625,7.119140625q0.60546875-0.91796875,1.5625-1.376953125t2.03125-0.458984375q1.484375,0,2.55859375,0.60546875t1.73828125,1.5625t0.986328125,2.216796875t0.322265625,2.568359375q0,0.72265625-0.146484375,1.806640625t-0.439453125,2.28515625t-0.7421875,2.3828125t-1.064453125,2.119140625t-1.416015625,1.513671875t-1.7578125,0.576171875q-0.1953125,0-0.517578125-0.05859375t-0.64453125-0.17578125t-0.537109375-0.302734375t-0.21484375-0.458984375q0-0.3125,0.380859375-0.439453125t0.615234375-0.126953125q0.87890625-0.390625,1.5625-1.630859375t1.142578125-2.724609375t0.693359375-2.939453125t0.234375-2.373046875q0-0.52734375-0.15625-1.40625t-0.478515625-1.73828125t-0.87890625-1.484375t-1.318359375-0.625q-0.91796875,0-1.46484375,0.947265625t-0.859375,2.20703125t-0.419921875,2.59765625t-0.107421875,2.099609375q0,0.48828125,0.166015625,0.966796875t0.380859375,0.95703125t0.380859375,0.9765625t0.166015625,0.986328125q0,0.234375-0.205078125,0.390625t-0.478515625,0.25390625t-0.576171875,0.126953125t-0.458984375,0.029296875q-1.11328125,0-1.54296875-0.52734375t-0.7421875-1.484375q-0.68359375-2.16796875-0.947265625-4.404296875t-0.263671875-4.482421875z M115.83359375,38.515625q0-1.3671875,0.302734375-3.22265625t1.025390625-3.515625t1.904296875-2.822265625t2.978515625-1.162109375q1.6796875,0,2.51953125,0.966796875t0.83984375,2.607421875q0,1.07421875-0.400390625,2.353515625t-1.142578125,2.421875t-1.7578125,1.904296875t-2.265625,0.76171875l-0.5078125-0.0390625q0,0.52734375,0.15625,1.416015625t0.458984375,1.767578125t0.78125,1.54296875t1.162109375,0.6640625q0.99609375,0,1.9140625-0.80078125t1.73828125-1.77734375t1.5234375-1.77734375t1.2890625-0.80078125q0.3125,0,0.64453125,0.09765625t0.37109375,0.546875q0,0.2734375-0.146484375,0.44921875t-0.263671875,0.390625q-0.60546875,1.03515625-1.318359375,1.97265625t-1.611328125,1.69921875t-1.962890625,1.201171875t-2.353515625,0.439453125q-1.6796875,0-2.79296875-0.595703125t-1.796875-1.6015625t-0.986328125-2.32421875t-0.302734375-2.763671875z M119.3296875,37.03125l0.546875,0.48828125q0.390625,0.3515625,0.78125,0.15625t0.703125-0.712890625t0.576171875-1.279296875t0.46875-1.5625t0.302734375-1.5625t0.09765625-1.26953125l0-0.6640625t-0.05859375-0.703125t-0.205078125-0.556640625t-0.458984375-0.283203125q-0.09765625-0.01953125-0.17578125-0.01953125q-0.6640625,0-1.1328125,0.83984375q-0.5078125,0.9375-0.8203125,2.275390625t-0.44921875,2.744140625t-0.17578125,2.109375z M132.1552734375,38.515625q0-1.3671875,0.302734375-3.22265625t1.025390625-3.515625t1.904296875-2.822265625t2.978515625-1.162109375q1.6796875,0,2.51953125,0.966796875t0.83984375,2.607421875q0,1.07421875-0.400390625,2.353515625t-1.142578125,2.421875t-1.7578125,1.904296875t-2.265625,0.76171875l-0.5078125-0.0390625q0,0.52734375,0.15625,1.416015625t0.458984375,1.767578125t0.78125,1.54296875t1.162109375,0.6640625q0.99609375,0,1.9140625-0.80078125t1.73828125-1.77734375t1.5234375-1.77734375t1.2890625-0.80078125q0.3125,0,0.64453125,0.09765625t0.37109375,0.546875q0,0.2734375-0.146484375,0.44921875t-0.263671875,0.390625q-0.60546875,1.03515625-1.318359375,1.97265625t-1.611328125,1.69921875t-1.962890625,1.201171875t-2.353515625,0.439453125q-1.6796875,0-2.79296875-0.595703125t-1.796875-1.6015625t-0.986328125-2.32421875t-0.302734375-2.763671875z M135.6513671875,37.03125l0.546875,0.48828125q0.390625,0.3515625,0.78125,0.15625t0.703125-0.712890625t0.576171875-1.279296875t0.46875-1.5625t0.302734375-1.5625t0.09765625-1.26953125l0-0.6640625t-0.05859375-0.703125t-0.205078125-0.556640625t-0.458984375-0.283203125q-0.09765625-0.01953125-0.17578125-0.01953125q-0.6640625,0-1.1328125,0.83984375q-0.5078125,0.9375-0.8203125,2.275390625t-0.44921875,2.744140625t-0.17578125,2.109375z M148.476953125,31.71875q0-0.390625,0.5078125-0.498046875t0.78125-0.107421875q1.71875,0,3.37890625-0.29296875t3.33984375-0.29296875q0.15625,0,0.517578125,0.01953125t0.68359375,0.078125t0.576171875,0.1953125t0.25390625,0.41015625q0,0.48828125-0.234375,1.40625t-0.634765625,2.060546875t-0.87890625,2.421875t-0.95703125,2.44140625t-0.8984375,2.099609375t-0.673828125,1.46484375q0.64453125,0.1171875,1.58203125,0.1953125t1.77734375,0.15625t1.40625,0.263671875t0.52734375,0.458984375q-0.078125,0.44921875-0.80078125,0.703125q-0.703125,0.25390625-1.7578125,0.3515625q-0.64453125,0.05859375-1.3671875,0.05859375q-0.4296875,0-0.859375-0.01953125q-1.171875-0.05859375-2.197265625-0.1953125t-1.708984375-0.380859375t-0.68359375-0.517578125q0-0.1171875,0.341796875-0.95703125t0.83984375-2.041015625t1.103515625-2.6171875t1.162109375-2.724609375t0.9765625-2.32421875t0.576171875-1.40625q-1.15234375,0.078125-2.333984375,0.1953125t-2.333984375,0.1171875q-0.15625,0-0.498046875-0.01953125t-0.6640625-0.09765625t-0.5859375-0.224609375t-0.263671875-0.380859375z"/><path fill="#" d=""/></svg>
