<?xml version="1.0"?>
<svg version="1.1" xmlns="http://www.w3.org/2000/svg" width="400px" height="200px" style=""><path fill="#fa7e11" d="M51.6650390625,112.2998046875q-0.02685546875-0.107421875-0.02685546875-0.21484375q0-2.79296875,0.34912109375-5.80078125q0.3759765625-3.14208984375,1.168212890625-6.2841796875t2.1484375-5.693359375t3.30322265625-4.229736328125t4.713134765625-2.000732421875q0.4833984375-0.0537109375,0.99365234375-0.0537109375q1.36962890625,0,2.81982421875,0.4296875q2.01416015625,0.56396484375,3.2763671875,1.9873046875q1.42333984375,0.107421875,2.28271484375,1.1279296875t1.2890625,2.470703125t0.631103515625,2.994384765625t0.308837890625,2.698974609375q0.2685546875,2.5244140625,0.34912109375,5.478515625q0.02685546875,0.56396484375,0.02685546875,1.15478515625q0,2.36328125-0.2685546875,4.75341796875q-0.322265625,3.0078125-1.15478515625,5.841064453125t-2.3095703125,5.115966796875t-3.759765625,3.826904296875t-5.5322265625,1.866455078125q2.79296875,1.26220703125,5.465087890625,2.672119140625t5.518798828125,2.403564453125q0.2685546875,0.107421875,0.738525390625,0.1611328125t0.93994140625,0.18798828125t0.83251953125,0.322265625t0.416259765625,0.5908203125q0,0.322265625-0.335693359375,0.56396484375t-0.8056640625,0.443115234375t-0.926513671875,0.308837890625t-0.6982421875,0.1611328125l-0.4296875,0l-0.684814453125,0t-0.631103515625-0.0537109375t-0.322265625-0.1611328125q-1.36962890625-0.1611328125-3.19580078125-0.966796875t-3.719482421875-1.839599609375t-3.7060546875-2.054443359375t-3.236083984375-1.63818359375l-0.29541015625-0.751953125q0.107421875-0.21484375,0.389404296875-0.389404296875t0.550537109375-0.281982421875q-1.69189453125-0.537109375-2.81982421875-1.611328125t-1.826171875-2.457275390625t-1.07421875-2.9541015625t-0.537109375-3.155517578125q-0.21484375-2.0947265625-0.21484375-4.96826171875z M56.875,112.353515625q0.0537109375,2.22900390625,0.21484375,3.8134765625q0.0537109375,0.83251953125,0.308837890625,2.06787109375t0.657958984375,2.49755859375t0.980224609375,2.33642578125t1.302490234375,1.58447265625q0.4833984375,0.2685546875,0.953369140625,0.40283203125t0.926513671875,0.40283203125q0.67138671875-0.0537109375,1.1279296875-0.29541015625t1.07421875-0.34912109375l0.0537109375-0.0537109375q1.93359375-0.88623046875,3.30322265625-2.564697265625t2.269287109375-3.800048828125t1.396484375-4.5654296875t0.684814453125-4.8876953125q0.13427734375-1.90673828125,0.13427734375-3.7060546875l0-1.0205078125q-0.0537109375-2.28271484375-0.21484375-4.10888671875q-0.21484375-1.69189453125-0.4296875-3.370361328125t-0.83251953125-3.289794921875q-1.10107421875,0.2685546875-1.624755859375,0.1611328125t-0.953369140625-1.15478515625q-0.1611328125,0-0.362548828125-0.08056640625t-0.255126953125-0.29541015625q0-0.1611328125,0.107421875-0.2685546875q-1.10107421875-1.10107421875-2.3095703125-1.26220703125q-0.51025390625-0.08056640625-1.1279296875-0.08056640625q-0.77880859375,0-1.71875,0.13427734375l-0.0537109375,0q-1.36962890625,0.99365234375-2.33642578125,2.833251953125t-1.624755859375,4.176025390625t-1.04736328125,4.91455078125t-0.523681640625,5.1025390625q-0.107421875,1.7724609375-0.107421875,3.4375q0,0.64453125,0.02685546875,1.2890625z M63.07861328125,127.6611328125q0.13427734375-0.0537109375,0.40283203125-0.0537109375q-0.107421875,0-0.18798828125,0.02685546875t-0.21484375,0.02685546875z M80.633227539062,115.11962890625q0-0.537109375,0.120849609375-1.42333984375t0.281982421875-1.759033203125t0.3759765625-1.624755859375t0.51025390625-0.966796875q0.21484375-0.21484375,0.738525390625-0.4296875t1.10107421875-0.308837890625t1.07421875,0.08056640625t0.604248046875,0.711669921875q-0.3759765625,0.4833984375-0.684814453125,1.651611328125t-0.469970703125,2.591552734375q-0.13427734375,1.20849609375-0.13427734375,2.49755859375l0,0.45654296875q0.02685546875,1.50390625,0.2685546875,2.76611328125t0.738525390625,2.081298828125t1.383056640625,0.819091796875q1.8798828125,0,3.4375-1.732177734375t2.76611328125-4.229736328125t2.12158203125-5.303955078125t1.5576171875-4.901123046875q0.1611328125-0.61767578125,0.765380859375-0.83251953125t1.302490234375-0.147705078125t1.248779296875,0.335693359375t0.657958984375,0.64453125q-0.537109375,4.51171875-0.845947265625,9.0234375t-0.308837890625,9.0771484375q0,0.88623046875,0.08056640625,1.624755859375t-0.08056640625,1.26220703125t-0.711669921875,0.83251953125t-1.759033203125,0.308837890625q-0.2685546875,0-0.684814453125-0.0537109375t-0.859375-0.174560546875t-0.751953125-0.362548828125t-0.308837890625-0.56396484375q0-1.9873046875,0.147705078125-4.08203125t0.416259765625-4.05517578125q-0.72509765625,1.04736328125-1.597900390625,2.081298828125t-1.920166015625,1.866455078125t-2.255859375,1.329345703125t-2.60498046875,0.496826171875q-1.9873046875,0-3.128662109375-0.93994140625t-1.71875-2.349853515625t-0.72509765625-3.074951171875t-0.147705078125-3.22265625z M105.89536132813,116.83837890625q0-2.470703125,0.577392578125-4.847412109375t0.980224609375-4.739990234375q0.107421875-0.61767578125,0.845947265625-0.765380859375t1.248779296875-0.147705078125q0.88623046875,0,1.42333984375,0.2685546875q0.21484375,0.107421875,0.40283203125,0.24169921875t0.18798828125,0.34912109375q0,2.3095703125-0.550537109375,4.51171875t-0.550537109375,4.6728515625q0,0.83251953125,0.120849609375,1.571044921875t0.228271484375,1.463623046875l0.1611328125,0.77880859375q0,0.21484375,0.02685546875,0.3759765625t0.08056640625,0.3759765625q0,0.4833984375-0.684814453125,0.657958984375t-1.195068359375,0.174560546875q-0.77880859375,0-1.436767578125-0.308837890625t-1.033935546875-1.060791015625l-0.3759765625-0.77880859375q-0.322265625-0.61767578125-0.322265625-1.383056640625t-0.13427734375-1.409912109375z M107.61411132813,100.67138671875l0-0.51025390625q0-1.26220703125,0.631103515625-2.255859375t1.893310546875-0.99365234375q0.1611328125,0,0.308837890625,0.02685546875t0.308837890625,0.02685546875q0.322265625,0.0537109375,0.845947265625,0.255126953125t0.523681640625,0.631103515625l0,0.0537109375q-0.107421875,0.21484375-0.13427734375,0.443115234375t-0.13427734375,0.389404296875l0.0537109375-0.0537109375q-0.322265625,0.83251953125-0.523681640625,1.3427734375t-0.443115234375,0.819091796875t-0.604248046875,0.443115234375t-1.033935546875,0.13427734375q-0.107421875,0-0.3759765625-0.02685546875t-0.577392578125-0.107421875t-0.523681640625-0.21484375t-0.21484375-0.40283203125z M117.62233886719,109.66796875q0-1.8798828125,0.174560546875-4.8876953125t0.416259765625-6.20361328125t0.604248046875-6.055908203125t0.792236328125-4.390869140625q0.1611328125-0.67138671875,0.765380859375-0.8056640625t1.221923828125-0.13427734375q0.83251953125,0,1.436767578125,0.29541015625t0.604248046875,1.2890625q0,4.8876953125-0.604248046875,9.788818359375t-0.657958984375,9.788818359375q0.83251953125-1.26220703125,2.1484375-1.893310546875t2.79296875-0.631103515625q2.041015625,0,3.51806640625,0.83251953125t2.39013671875,2.1484375t1.356201171875,3.048095703125t0.443115234375,3.531494140625q0,0.99365234375-0.201416015625,2.484130859375t-0.604248046875,3.14208984375t-1.0205078125,3.2763671875t-1.463623046875,2.913818359375t-1.947021484375,2.081298828125t-2.4169921875,0.792236328125q-0.2685546875,0-0.711669921875-0.08056640625t-0.88623046875-0.24169921875t-0.738525390625-0.416259765625t-0.29541015625-0.631103515625q0-0.4296875,0.523681640625-0.604248046875t0.845947265625-0.174560546875q1.20849609375-0.537109375,2.1484375-2.242431640625t1.571044921875-3.746337890625t0.953369140625-4.041748046875t0.322265625-3.262939453125q0-0.72509765625-0.21484375-1.93359375t-0.657958984375-2.39013671875t-1.20849609375-2.041015625t-1.812744140625-0.859375q-1.26220703125,0-2.01416015625,1.302490234375t-1.181640625,3.03466796875t-0.577392578125,3.57177734375t-0.147705078125,2.886962890625q0,0.67138671875,0.228271484375,1.329345703125t0.523681640625,1.31591796875t0.523681640625,1.3427734375t0.228271484375,1.356201171875q0,0.322265625-0.281982421875,0.537109375t-0.657958984375,0.34912109375t-0.792236328125,0.174560546875t-0.631103515625,0.040283203125q-1.53076171875,0-2.12158203125-0.72509765625t-1.0205078125-2.041015625q-0.93994140625-2.98095703125-1.302490234375-6.055908203125t-0.362548828125-6.163330078125z M140.52119140625,118.583984375q0-1.8798828125,0.416259765625-4.43115234375t1.409912109375-4.833984375t2.618408203125-3.880615234375t4.095458984375-1.597900390625q2.3095703125,0,3.46435546875,1.329345703125t1.15478515625,3.585205078125q0,1.47705078125-0.550537109375,3.236083984375t-1.571044921875,3.330078125t-2.4169921875,2.618408203125t-3.115234375,1.04736328125l-0.6982421875-0.0537109375q0,0.72509765625,0.21484375,1.947021484375t0.631103515625,2.430419921875t1.07421875,2.12158203125t1.597900390625,0.9130859375q1.36962890625,0,2.6318359375-1.10107421875t2.39013671875-2.44384765625t2.0947265625-2.44384765625t1.7724609375-1.10107421875q0.4296875,0,0.88623046875,0.13427734375t0.51025390625,0.751953125q0,0.3759765625-0.201416015625,0.61767578125t-0.362548828125,0.537109375q-0.83251953125,1.42333984375-1.812744140625,2.71240234375t-2.215576171875,2.33642578125t-2.698974609375,1.651611328125t-3.236083984375,0.604248046875q-2.3095703125,0-3.84033203125-0.819091796875t-2.470703125-2.2021484375t-1.356201171875-3.19580078125t-0.416259765625-3.800048828125z M145.3283203125,116.54296875l0.751953125,0.67138671875q0.537109375,0.4833984375,1.07421875,0.21484375t0.966796875-0.980224609375t0.792236328125-1.759033203125t0.64453125-2.1484375t0.416259765625-2.1484375t0.13427734375-1.74560546875l0-0.9130859375t-0.08056640625-0.966796875t-0.281982421875-0.765380859375t-0.631103515625-0.389404296875q-0.13427734375-0.02685546875-0.24169921875-0.02685546875q-0.9130859375,0-1.5576171875,1.15478515625q-0.6982421875,1.2890625-1.1279296875,3.128662109375t-0.61767578125,3.773193359375t-0.24169921875,2.900390625z M162.96350097656,118.583984375q0-1.8798828125,0.416259765625-4.43115234375t1.409912109375-4.833984375t2.618408203125-3.880615234375t4.095458984375-1.597900390625q2.3095703125,0,3.46435546875,1.329345703125t1.15478515625,3.585205078125q0,1.47705078125-0.550537109375,3.236083984375t-1.571044921875,3.330078125t-2.4169921875,2.618408203125t-3.115234375,1.04736328125l-0.6982421875-0.0537109375q0,0.72509765625,0.21484375,1.947021484375t0.631103515625,2.430419921875t1.07421875,2.12158203125t1.597900390625,0.9130859375q1.36962890625,0,2.6318359375-1.10107421875t2.39013671875-2.44384765625t2.0947265625-2.44384765625t1.7724609375-1.10107421875q0.4296875,0,0.88623046875,0.13427734375t0.51025390625,0.751953125q0,0.3759765625-0.201416015625,0.61767578125t-0.362548828125,0.537109375q-0.83251953125,1.42333984375-1.812744140625,2.71240234375t-2.215576171875,2.33642578125t-2.698974609375,1.651611328125t-3.236083984375,0.604248046875q-2.3095703125,0-3.84033203125-0.819091796875t-2.470703125-2.2021484375t-1.356201171875-3.19580078125t-0.416259765625-3.800048828125z M167.77062988281,116.54296875l0.751953125,0.67138671875q0.537109375,0.4833984375,1.07421875,0.21484375t0.966796875-0.980224609375t0.792236328125-1.759033203125t0.64453125-2.1484375t0.416259765625-2.1484375t0.13427734375-1.74560546875l0-0.9130859375t-0.08056640625-0.966796875t-0.281982421875-0.765380859375t-0.631103515625-0.389404296875q-0.13427734375-0.02685546875-0.24169921875-0.02685546875q-0.9130859375,0-1.5576171875,1.15478515625q-0.6982421875,1.2890625-1.1279296875,3.128662109375t-0.61767578125,3.773193359375t-0.24169921875,2.900390625z M185.40581054687,109.23828125q0-0.537109375,0.6982421875-0.684814453125t1.07421875-0.147705078125q2.36328125,0,4.64599609375-0.40283203125t4.59228515625-0.40283203125q0.21484375,0,0.711669921875,0.02685546875t0.93994140625,0.107421875t0.792236328125,0.2685546875t0.34912109375,0.56396484375q0,0.67138671875-0.322265625,1.93359375t-0.872802734375,2.833251953125t-1.20849609375,3.330078125t-1.31591796875,3.35693359375t-1.2353515625,2.886962890625t-0.926513671875,2.01416015625q0.88623046875,0.1611328125,2.17529296875,0.2685546875t2.44384765625,0.21484375t1.93359375,0.362548828125t0.72509765625,0.631103515625q-0.107421875,0.61767578125-1.10107421875,0.966796875q-0.966796875,0.34912109375-2.4169921875,0.4833984375q-0.88623046875,0.08056640625-1.8798828125,0.08056640625q-0.5908203125,0-1.181640625-0.02685546875q-1.611328125-0.08056640625-3.021240234375-0.2685546875t-2.349853515625-0.523681640625t-0.93994140625-0.711669921875q0-0.1611328125,0.469970703125-1.31591796875t1.15478515625-2.806396484375t1.517333984375-3.5986328125t1.597900390625-3.746337890625t1.3427734375-3.19580078125t0.792236328125-1.93359375q-1.58447265625,0.107421875-3.209228515625,0.2685546875t-3.209228515625,0.1611328125q-0.21484375,0-0.684814453125-0.02685546875t-0.9130859375-0.13427734375t-0.8056640625-0.308837890625t-0.362548828125-0.523681640625z"/><path fill="#" d=""/></svg>
